<svg xmlns="http://www.w3.org/2000/svg" width="24" height="24" viewBox="0 0 24 24">
    <g fill="none" fill-rule="evenodd" stroke="#9F9D9C" stroke-linecap="round" stroke-linejoin="round" stroke-width="1.6">
        <path d="M9.921 19.612c0 1.316 1.122 2.388 2.5 2.388 1.38 0 2.5-1.072 2.5-2.388V19h-5v.612zM18.429 7.804a6.68 6.68 0 0 1 .563 2.684v4.17c0 .027.014.077.04.119l1.709 2.338c.361.443.304.979.076 1.326-.296.461-.69.559-.969.559H5.141c-.515 0-.878-.324-1.025-.653a1.17 1.17 0 0 1 .12-1.213l1.751-2.393a.272.272 0 0 0 .011-.082v-4.171c0-2.962 1.967-5.583 4.8-6.38.059-.015.102-.087.102-.168v-.654c0-.722.555-1.286 1.261-1.286h.69c.709 0 1.262.564 1.262 1.286v.63a.18.18 0 0 0 .125.173 6.502 6.502 0 0 1 2.342 1.25"/>
    </g>
</svg>
