<svg width="24" height="25" viewBox="0 0 24 25" xmlns="http://www.w3.org/2000/svg" xmlns:xlink="http://www.w3.org/1999/xlink">
    <defs>
        <path id="pjiafyw8ma" d="M0 0h22v19.355H0z"/>
    </defs>
    <g transform="translate(1 2.125)" fill="none" fill-rule="evenodd">
        <mask id="akoiv9j6lb" fill="#fff">
            <use xlink:href="#pjiafyw8ma"/>
        </mask>
        <path d="M18.026 13.352h-2.683c-1.27 0-2.532.38-3.595 1.073V2.995a5.107 5.107 0 0 1 3.596-1.499h2.682v11.856zm-7.774 1.073a6.628 6.628 0 0 0-3.595-1.073H3.974V1.496h2.683a5.107 5.107 0 0 1 3.595 1.495v11.434zm.003 4.835a2.855 2.855 0 0 0 .562.09l.18.005a2.962 2.962 0 0 0 1.01-.179h.032l.182-.078.424-.232.061-.043.062-.043.092-.077.344-.347a3.02 3.02 0 0 1 2.278-1.017h5.488c.272 0 .538-.11.73-.302.194-.195.3-.455.3-.73v-5.338a.749.749 0 0 0-1.496 0v4.883h-5.005a4.515 4.515 0 0 0-3.413 1.525l-.04.041c-.057.057-.12.108-.184.154l-.064.044c-.043.03-.089.057-.135.081h-.01l-.15.067c-.046.017-.092.031-.138.042l-.09.021c-.091.02-.185.03-.275.031h-.09a1.426 1.426 0 0 1-.189-.025l-.019-.003h-.017l-.028-.01a.912.912 0 0 0-.046-.015l-.027-.008a.825.825 0 0 1-.093-.028l-.089-.039-.037-.017a1.51 1.51 0 0 1-.169-.096l-.073-.05a1.491 1.491 0 0 1-.17-.152l-.043-.045a4.587 4.587 0 0 0-3.408-1.529H1.496V3.701h.982v10.408a.754.754 0 0 0 .758.748h3.42a5.085 5.085 0 0 1 3.785 1.698.749.749 0 0 0 1.116 0 5.085 5.085 0 0 1 3.784-1.698h3.424a.754.754 0 0 0 .757-.748V3.7h.982v3.657a.749.749 0 0 0 1.496 0V3.222a1.034 1.034 0 0 0-1.045-1.017h-1.433V.754A.753.753 0 0 0 18.763 0h-3.42A6.57 6.57 0 0 0 11 1.644 6.57 6.57 0 0 0 6.657 0H3.226a.749.749 0 0 0-.748.748v1.457H1.045c-.182 0-.356.043-.505.123a1.035 1.035 0 0 0-.54.896v13.067a1.033 1.033 0 0 0 1.03 1.046h5.472a3.09 3.09 0 0 1 2.251.982l.132.142c.107.11.223.212.345.305l.036.026.108.075c.108.071.221.136.337.193l.053.025a2.483 2.483 0 0 0 .414.154l.077.02z" fill="#9BAAA3" mask="url(#akoiv9j6lb)"/>
    </g>
</svg>
