<svg width="25" height="25" xmlns="http://www.w3.org/2000/svg">
    <path d="M17.167 4.975a5.9 5.9 0 0 1 5.9 5.9.9.9 0 0 1-1.8 0A4.1 4.1 0 0 0 17.37 6.78l-.204-.005H9.5a5.1 5.1 0 0 0-5.096 4.884l-.004.216-.001 7.1h12.86a4.007 4.007 0 0 0 4.003-3.807l.005-.2a.9.9 0 1 1 1.8 0 5.807 5.807 0 0 1-5.584 5.803l-.223.004H3.5a.9.9 0 0 1-.893-.787l-.007-.113v-8a6.9 6.9 0 0 1 6.663-6.896l.237-.004h7.667zm-4.667 8.5a1 1 0 0 1 0 2h-3a1 1 0 0 1 0-2h3zm5-3.6a1 1 0 0 1 0 2h-8a1 1 0 0 1 0-2h8z" fill="#9BAAA3" fill-rule="nonzero"/>
</svg>
