<svg width="24" height="24" viewBox="0 0 24 24" xmlns="http://www.w3.org/2000/svg" xmlns:xlink="http://www.w3.org/1999/xlink">
    <defs>
        <path id="mz9be94hoa" d="M0 0h20v20.125H0z"/>
    </defs>
    <g fill="none" fill-rule="evenodd">
        <path d="M12.985 17.031a1.048 1.048 0 1 1-.306-.74c.197.197.307.464.306.742v-.002zM14.809 11.614a3.5 3.5 0 0 0 .62-2.095 3.513 3.513 0 0 0-1.073-2.404 3.514 3.514 0 0 0-2.44-.993h-.021A3.467 3.467 0 0 0 8.78 8.101a.968.968 0 0 0-.041.738c.082.244.261.449.492.562.23.113.502.128.745.043a.972.972 0 0 0 .553-.5 1.56 1.56 0 0 1 1.394-.892 1.592 1.592 0 0 1 1.574 1.512c.01.334-.088.667-.277.94-.19.273-.467.482-.782.589-.426.14-.791.404-1.056.765a2.117 2.117 0 0 0-.411 1.237v.83a.97.97 0 0 0 .483.838.97.97 0 0 0 .967 0 .97.97 0 0 0 .483-.838v-.831c0-.11.13-.16.155-.17a3.501 3.501 0 0 0 1.749-1.31" fill="#9BAAA3"/>
        <g transform="translate(2 2)">
            <mask id="xs5xzpucyb" fill="#fff">
                <use xlink:href="#mz9be94hoa"/>
            </mask>
            <path d="M17.178 2.947A10.011 10.011 0 0 0 13.913.766 10.012 10.012 0 0 0 10.063 0C8.734 0 7.439.258 6.212.766a10.012 10.012 0 0 0-3.265 2.181c-.939.94-1.673 2.038-2.181 3.265a10.025 10.025 0 0 0 .003 7.7 10.026 10.026 0 0 0 2.182 3.262 10.028 10.028 0 0 0 3.263 2.182c1.226.509 2.52.767 3.849.77h.03a10.011 10.011 0 0 0 3.82-.767 10.013 10.013 0 0 0 3.265-2.181 10.006 10.006 0 0 0 2.81-5.457.915.915 0 1 0-1.806-.3 8.185 8.185 0 0 1-2.297 4.46 8.192 8.192 0 0 1-2.67 1.785 8.192 8.192 0 0 1-3.15.627h-.002a8.193 8.193 0 0 1-3.15-.626 8.19 8.19 0 0 1-2.67-1.784 8.19 8.19 0 0 1-1.785-2.67 8.2 8.2 0 0 1 .002-6.3 8.202 8.202 0 0 1 1.784-2.67 8.2 8.2 0 0 1 2.67-1.784c.973-.404 2-.615 3.051-.629l.098-.002c1.086 0 2.146.21 3.15.627a8.192 8.192 0 0 1 2.67 1.784 8.253 8.253 0 0 1 2.085 3.526.924.924 0 0 0 .88.667c.29 0 .556-.133.73-.365a.914.914 0 0 0 .148-.81 10.087 10.087 0 0 0-2.548-4.31" fill="#9BAAA3" mask="url(#xs5xzpucyb)"/>
        </g>
    </g>
</svg>
